<svg xmlns="http://www.w3.org/2000/svg" viewBox="0 0 80 80"><g fill="#2DC100"><path d="M55.6 28.2c-7.4.4-13.9 2.6-19.1 7.7-5.3 5.1-7.7 11.4-7.1 19.2-2.9-.4-5.5-.8-8.2-1-.9-.1-2 0-2.8.5-2.6 1.5-5.1 3.1-8 4.9.5-2.4.9-4.6 1.5-6.6.5-1.5.2-2.3-1.1-3.3C1.9 43.3-1.9 33.9.9 24.2c2.6-9 9-14.4 17.7-17.2 11.8-3.9 25.2.1 32.4 9.5 2.6 3.4 4.2 7.2 4.6 11.7zm-34.2-3c.1-1.8-1.5-3.4-3.3-3.4-1.9-.1-3.4 1.4-3.5 3.2-.1 1.9 1.4 3.4 3.3 3.4s3.4-1.4 3.5-3.2zm17.8-3.5c-1.8 0-3.4 1.6-3.3 3.4 0 1.8 1.6 3.3 3.4 3.3 1.9 0 3.3-1.5 3.3-3.4 0-1.8-1.5-3.3-3.4-3.3z"/><path d="M72.3 74.5c-2.4-1-4.5-2.6-6.8-2.9-2.3-.2-4.7 1.1-7.1 1.3-7.3.7-13.8-1.3-19.2-6.3-10.2-9.5-8.8-24 3.1-31.8 10.5-6.9 26-4.6 33.4 5 6.5 8.4 5.7 19.4-2.2 26.5-2.3 2-3.1 3.7-1.6 6.4.2.5.2 1.2.4 1.8zM45.5 48.6c1.5 0 2.7-1.2 2.8-2.6.1-1.6-1.2-2.9-2.8-2.9-1.6 0-2.9 1.3-2.8 2.9.1 1.4 1.3 2.6 2.8 2.6zM62.8 43c-1.5 0-2.7 1.2-2.7 2.6-.1 1.6 1.2 2.9 2.7 2.9 1.5 0 2.7-1.1 2.7-2.6s-1.2-2.8-2.7-2.9z"/></g></svg>